<?xml version="1.0" standalone="yes"?>
<svg xmlns="http://www.w3.org/2000/svg" width="32" height="32">
<path style="fill:#fffffe; stroke:none;" d="M0 0L0 32L32 32L32 0L0 0z"/>
<path style="fill:#fee7c5; stroke:none;" d="M3 3L4 4L3 3z"/>
<path style="fill:#fbd79d; stroke:none;" d="M4 3L4 4L11 4L13 13L14 13L12 4L13 4L13 8L14 8L15 4L16 4L16 8L17 8L17 4L28 4L28 28L18 26L17 26L4 28C8.2993 29.8041 23.5374 31.0287 27.3966 27.9722C30.5155 25.502 30.5155 6.49799 27.3966 4.02778C22.975 0.525805 9.5105 3 4 3z"/>
<path style="fill:#fee7c5; stroke:none;" d="M28 3L29 4L28 3z"/>
<path style="fill:#fbc779; stroke:none;" d="M3 4L3 28L4 28L3 4z"/>
<path style="fill:#f7b850; stroke:none;" d="M4 4L4 28L10 28L14 22L6 22L6 14L10 14L10 4L4 4z"/>
<path style="fill:#fbc779; stroke:none;" d="M10 4L11 5L10 4z"/>
<path style="fill:#fee7c5; stroke:none;" d="M12 4L13 5L12 4M15 4L16 5L15 4M17 4L17 5L27 5L26 13L25 13L25 9L24 9L21 10L21 14L25 14L26 20C22.1071 21.8982 19.9132 23.6813 19 28L28 28L26 19L28 4L17 4M10.3333 5.66667L10.6667 6.33333L10.3333 5.66667z"/>
<path style="fill:#fffffe; stroke:none;" d="M12 5L12 9L13 9L12 5M15 5L13 14L11 7L10 7L11 15L7 15L7 21L25 20L25 14L14 14L15 5M17 5L16 10L17 11L25 9L26 10L25 13L26 13L27 5L17 5z"/>
<path style="fill:#fee7c5; stroke:none;" d="M14.3333 6.66667L14.6667 7.33333L14.3333 6.66667z"/>
<path style="fill:#fbc779; stroke:none;" d="M9 7L9 13L10 13L9 7z"/>
<path style="fill:#fee7c5; stroke:none;" d="M13 8L12 10L14 10L13 8M15.6667 8.33333L16.3333 8.66667L15.6667 8.33333z"/>
<path style="fill:#fbd79d; stroke:none;" d="M15 9L16 10L15 9M17 9L18 10L17 9z"/>
<path style="fill:#fee7c5; stroke:none;" d="M11.3333 10.6667L11.6667 11.3333L11.3333 10.6667M14 10L14 14L19 14L20 10L18 12L14 10z"/>
<path style="fill:#fbd79d; stroke:none;" d="M18 10L19 11L18 10M22.6667 10.3333L23.3333 10.6667L22.6667 10.3333M25 10L26 11L25 10M17 11L18 12L17 11M19.6667 11.3333L20.3333 11.6667L19.6667 11.3333z"/>
<path style="fill:#fee7c5; stroke:none;" d="M12.3333 12.6667L12.6667 13.3333L12.3333 12.6667z"/>
<path style="fill:#fbd79d; stroke:none;" d="M16 12L16 14L18 14L16 12z"/>
<path style="fill:#fbc779; stroke:none;" d="M19.6667 12.3333L20.3333 12.6667L19.6667 12.3333z"/>
<path style="fill:#fee7c5; stroke:none;" d="M10 13L6 21L7 21L7 15L10 13z"/>
<path style="fill:#fffffe; stroke:none;" d="M26 13L26 17L27 17L26 13z"/>
<path style="fill:#fbd79d; stroke:none;" d="M6 14L7 15L6 14z"/>
<path style="fill:#fee7c5; stroke:none;" d="M10 17L10 18L23 19L10 17z"/>
<path style="fill:#fbc779; stroke:none;" d="M8 17L11 19L8 17z"/>
<path style="fill:#fbd79d; stroke:none;" d="M12 18L13 19L12 18z"/>
<path style="fill:#fbc779; stroke:none;" d="M13 18L13 19L17 19L13 18z"/>
<path style="fill:#fbd79d; stroke:none;" d="M17 18L18 19L17 18z"/>
<path style="fill:#fbc779; stroke:none;" d="M18 18L18 19L22 19L18 18z"/>
<path style="fill:#fffffe; stroke:none;" d="M26 18L27 19L26 18z"/>
<path style="fill:#fee7c5; stroke:none;" d="M16 19L17 20L16 19z"/>
<path style="fill:#fbd79d; stroke:none;" d="M25 19L26 20L25 19z"/>
<path style="fill:#fee7c5; stroke:none;" d="M17 20L16 24L19 20L17 20z"/>
<path style="fill:#fbd79d; stroke:none;" d="M19 20L19 25L20 25L25 21L25 20L19 20z"/>
<path style="fill:#fee7c5; stroke:none;" d="M20.6667 20.3333L21.3333 20.6667L20.6667 20.3333z"/>
<path style="fill:#fffffe; stroke:none;" d="M26 20L20 26L27 27L26 20z"/>
<path style="fill:#fbc779; stroke:none;" d="M6 21L6 22L14 22L10 28L11 28L11 25L15 25L15 21L6 21z"/>
<path style="fill:#fbd79d; stroke:none;" d="M15 21L15 25L16 25L15 21M17.3333 21.6667L17.6667 22.3333L17.3333 21.6667z"/>
<path style="fill:#fbc779; stroke:none;" d="M19 22L20 23L19 22M21 22L22 23L21 22z"/>
<path style="fill:#fbd79d; stroke:none;" d="M23 22L22 24L23 22z"/>
<path style="fill:#fee7c5; stroke:none;" d="M23 23L24 24L23 23z"/>
<path style="fill:#fbc779; stroke:none;" d="M16 24L16 25L19 25L16 24z"/>
<path style="fill:#fffffe; stroke:none;" d="M11.3333 25.6667L11.6667 26.3333L11.3333 25.6667z"/>
<path style="fill:#fbd79d; stroke:none;" d="M12 25L13 26L12 25z"/>
<path style="fill:#fffffe; stroke:none;" d="M13 25L15 27L15 25L13 25z"/>
<path style="fill:#fee7c5; stroke:none;" d="M14 28L18 25L14 28z"/>
<path style="fill:#fffffe; stroke:none;" d="M18.3333 25.6667L18.6667 26.3333L18.3333 25.6667z"/>
<path style="fill:#fee7c5; stroke:none;" d="M11 28L14 26L11 28M17 27L18 28L17 27M3 28L4 29L3 28M28 28L29 29L28 28z"/>
</svg>
